<mxfile host="app.diagrams.net" agent="Mozilla/5.0" version="28.2.8">
  <diagram name="성적 자동 계산 로직" id="grade-auto-calc">
    <mxGraphModel dx="1920" dy="1080" grid="1" gridSize="10" guides="1" tooltips="1" connect="1" arrows="1" fold="1" page="1" pageScale="1" pageWidth="1920" pageHeight="1080" background="#FFFFFF" math="0" shadow="0">
      <root>
        <mxCell id="0" />
        <mxCell id="1" parent="0" />

        <!-- 제목 -->
        <mxCell id="title" value="GradeCalculationService 자동 계산 흐름" style="text;html=1;strokeColor=none;fillColor=none;align=center;verticalAlign=middle;whiteSpace=wrap;rounded=0;fontSize=32;fontStyle=1;fontColor=#1A1A1A;" parent="1" vertex="1">
          <mxGeometry x="600" y="40" width="720" height="60" as="geometry" />
        </mxCell>

        <!-- 트리거 영역 -->
        <mxCell id="trigger" value="트리거 이벤트" style="rounded=1;whiteSpace=wrap;html=1;strokeColor=#F4511E;strokeWidth=3;fillColor=#FFCCBC;fontSize=20;fontColor=#BF360C;fontStyle=1;" parent="1" vertex="1">
          <mxGeometry x="200" y="160" width="320" height="120" as="geometry" />
        </mxCell>
        <mxCell id="triggerList" value="• GradeUpdateEvent\n• Attendance 승인\n• Assignment 점수 입력\n• 시험 점수 입력" style="rounded=1;whiteSpace=wrap;html=1;strokeColor=#F4511E;strokeWidth=2;fillColor=#FFE0B2;fontSize=18;fontColor=#BF360C;" parent="1" vertex="1">
          <mxGeometry x="200" y="290" width="320" height="200" as="geometry" />
        </mxCell>

        <!-- 메인 프로세스 박스 -->
        <mxCell id="processSwimlane" value="GradeCalculationService" style="swimlane;horizontal=0;swimlaneFillColor=#E0F2F1;fontStyle=1;fontSize=22;fontColor=#004D40;strokeColor=#009688;strokeWidth=4;rounded=1;" parent="1" vertex="1">
          <mxGeometry x="600" y="140" width="760" height="780" as="geometry" />
        </mxCell>

        <!-- 단계 1 -->
        <mxCell id="step1" value="1. ENROLLMENT_EXTENDED_TBL 로드" style="rounded=1;whiteSpace=wrap;html=1;strokeColor=#009688;strokeWidth=3;fillColor=#E0F7FA;fontSize=20;fontColor=#006064;fontStyle=1;" parent="processSwimlane" vertex="1">
          <mxGeometry x="40" y="70" width="360" height="90" as="geometry" />
        </mxCell>
        <mxCell id="step1Detail" value="• enrollmentRepository.findById(enrollmentIdx)\n• ENROLLMENT_DATA JSON 파싱" style="rounded=1;whiteSpace=wrap;html=1;strokeColor=#009688;strokeWidth=2;fillColor=#FFFFFF;fontSize=18;fontColor=#004D40;" parent="processSwimlane" vertex="1">
          <mxGeometry x="420" y="70" width="360" height="120" as="geometry" />
        </mxCell>

        <!-- 단계 2 -->
        <mxCell id="step2" value="2. 가중치 읽기" style="rounded=1;whiteSpace=wrap;html=1;strokeColor=#00695C;strokeWidth=3;fillColor=#B2DFDB;fontSize=20;fontColor=#004D40;fontStyle=1;" parent="processSwimlane" vertex="1">
          <mxGeometry x="40" y="230" width="360" height="90" as="geometry" />
        </mxCell>
        <mxCell id="step2Detail" value="components = grade.components\n• attendanceRatio\n• assignmentRatio\n• examRatio" style="rounded=1;whiteSpace=wrap;html=1;strokeColor=#00695C;strokeWidth=2;fillColor=#FFFFFF;fontSize=18;fontColor=#004D40;" parent="processSwimlane" vertex="1">
          <mxGeometry x="420" y="230" width="360" height="120" as="geometry" />
        </mxCell>

        <!-- 단계 3 -->
        <mxCell id="step3" value="3. 출석 점수 계산" style="rounded=1;whiteSpace=wrap;html=1;strokeColor=#43A047;strokeWidth=3;fillColor=#C8E6C9;fontSize=20;fontColor=#1B5E20;fontStyle=1;" parent="processSwimlane" vertex="1">
          <mxGeometry x="40" y="390" width="360" height="90" as="geometry" />
        </mxCell>
        <mxCell id="step3Detail" value="attendanceScore = (attendedSessions / totalSessions) * 100\nattendanceWeighted = attendanceScore * attendanceRatio" style="rounded=1;whiteSpace=wrap;html=1;strokeColor=#43A047;strokeWidth=2;fillColor=#FFFFFF;fontSize=18;fontColor=#1B5E20;" parent="processSwimlane" vertex="1">
          <mxGeometry x="420" y="390" width="360" height="140" as="geometry" />
        </mxCell>

        <!-- 단계 4 -->
        <mxCell id="step4" value="4. 과제 점수 계산" style="rounded=1;whiteSpace=wrap;html=1;strokeColor=#7E57C2;strokeWidth=3;fillColor=#D1C4E9;fontSize=20;fontColor=#512DA8;fontStyle=1;" parent="processSwimlane" vertex="1">
          <mxGeometry x="40" y="560" width="360" height="90" as="geometry" />
        </mxCell>
        <mxCell id="step4Detail" value="assignmentWeighted = Σ(assignments[i].score / maxScore * assignments[i].weight) * assignmentRatio" style="rounded=1;whiteSpace=wrap;html=1;strokeColor=#7E57C2;strokeWidth=2;fillColor=#FFFFFF;fontSize=18;fontColor=#512DA8;" parent="processSwimlane" vertex="1">
          <mxGeometry x="420" y="560" width="360" height="160" as="geometry" />
        </mxCell>

        <!-- 단계 5 -->
        <mxCell id="step5" value="5. 시험 점수 계산" style="rounded=1;whiteSpace=wrap;html=1;strokeColor=#EF6C00;strokeWidth=3;fillColor=#FFE0B2;fontSize=20;fontColor=#E65100;fontStyle=1;" parent="processSwimlane" vertex="1">
          <mxGeometry x="40" y="740" width="360" height="90" as="geometry" />
        </mxCell>
        <mxCell id="step5Detail" value="examWeighted = Σ(exams[i].score / maxScore * exams[i].weight) * examRatio" style="rounded=1;whiteSpace=wrap;html=1;strokeColor=#EF6C00;strokeWidth=2;fillColor=#FFFFFF;fontSize=18;fontColor=#BF360C;" parent="processSwimlane" vertex="1">
          <mxGeometry x="420" y="740" width="360" height="140" as="geometry" />
        </mxCell>

        <!-- 합산 -->
        <mxCell id="total" value="6. totalScore = attendanceWeighted + assignmentWeighted + examWeighted" style="rounded=1;whiteSpace=wrap;html=1;strokeColor=#37474F;strokeWidth=3;fillColor=#ECEFF1;fontSize=20;fontColor=#263238;fontStyle=1;" parent="1" vertex="1">
          <mxGeometry x="1390" y="280" width="360" height="160" as="geometry" />
        </mxCell>

        <!-- 레터 계산 -->
        <mxCell id="letter" value="7. letterGrade 결정" style="rounded=1;whiteSpace=wrap;html=1;strokeColor=#455A64;strokeWidth=3;fillColor=#CFD8DC;fontSize=20;fontColor=#263238;fontStyle=1;" parent="1" vertex="1">
          <mxGeometry x="1390" y="480" width="360" height="120" as="geometry" />
        </mxCell>
        <mxCell id="letterDetail" value="if totalScore ≥ 95 → A+ ...
GradePolicyResolver에서 컷오프 조회" style="rounded=1;whiteSpace=wrap;html=1;strokeColor=#455A64;strokeWidth=2;fillColor=#FFFFFF;fontSize=18;fontColor=#37474F;" parent="1" vertex="1">
          <mxGeometry x="1390" y="610" width="360" height="140" as="geometry" />
        </mxCell>

        <!-- 결과 저장 -->
        <mxCell id="save" value="8. ENROLLMENT_DATA 갱신" style="rounded=1;whiteSpace=wrap;html=1;strokeColor=#00838F;strokeWidth=3;fillColor=#E0F7FA;fontSize=20;fontColor=#006064;fontStyle=1;" parent="1" vertex="1">
          <mxGeometry x="1390" y="780" width="360" height="140" as="geometry" />
        </mxCell>
        <mxCell id="saveDetail" value="• grade.totalScore, grade.letterGrade 업데이트
• analytics.gradeHistory append
• enrollmentRepository.save(enrollment)" style="rounded=1;whiteSpace=wrap;html=1;strokeColor=#00838F;strokeWidth=2;fillColor=#FFFFFF;fontSize=18;fontColor=#006064;" parent="1" vertex="1">
          <mxGeometry x="1390" y="930" width="360" height="170" as="geometry" />
        </mxCell>

        <!-- 화살표 -->
        <mxCell id="arrow1" value="" style="edgeStyle=orthogonalEdgeStyle;rounded=0;html=1;strokeWidth=3;strokeColor=#F4511E;endArrow=block;endFill=1;" parent="1" source="trigger" target="processSwimlane" edge="1">
          <mxGeometry relative="1" as="geometry">
            <mxPoint x="520" y="220" as="targetPoint" />
          </mxGeometry>
        </mxCell>
        <mxCell id="arrow2" value="" style="edgeStyle=orthogonalEdgeStyle;rounded=0;html=1;strokeWidth=2;strokeColor=#009688;endArrow=block;endFill=1;" parent="1" source="step1Detail" target="step2" edge="1">
          <mxGeometry relative="1" as="geometry" />
        </mxCell>
        <mxCell id="arrow3" value="" style="edgeStyle=orthogonalEdgeStyle;rounded=0;html=1;strokeWidth=2;strokeColor=#00695C;endArrow=block;endFill=1;" parent="1" source="step2Detail" target="step3" edge="1">
          <mxGeometry relative="1" as="geometry" />
        </mxCell>
        <mxCell id="arrow4" value="" style="edgeStyle=orthogonalEdgeStyle;rounded=0;html=1;strokeWidth=2;strokeColor=#43A047;endArrow=block;endFill=1;" parent="1" source="step3Detail" target="step4" edge="1">
          <mxGeometry relative="1" as="geometry" />
        </mxCell>
        <mxCell id="arrow5" value="" style="edgeStyle=orthogonalEdgeStyle;rounded=0;html=1;strokeWidth=2;strokeColor=#7E57C2;endArrow=block;endFill=1;" parent="1" source="step4Detail" target="step5" edge="1">
          <mxGeometry relative="1" as="geometry" />
        </mxCell>
        <mxCell id="arrow6" value="" style="edgeStyle=orthogonalEdgeStyle;rounded=0;html=1;strokeWidth=3;strokeColor=#37474F;endArrow=block;endFill=1;" parent="1" source="processSwimlane" target="total" edge="1">
          <mxGeometry relative="1" as="geometry">
            <mxPoint x="1360" y="360" as="sourcePoint" />
          </mxGeometry>
        </mxCell>
        <mxCell id="arrow7" value="" style="edgeStyle=orthogonalEdgeStyle;rounded=0;html=1;strokeWidth=3;strokeColor=#455A64;endArrow=block;endFill=1;" parent="1" source="total" target="letter" edge="1" />
        <mxCell id="arrow8" value="" style="edgeStyle=orthogonalEdgeStyle;rounded=0;html=1;strokeWidth=3;strokeColor=#00838F;endArrow=block;endFill=1;" parent="1" source="letterDetail" target="save" edge="1" />
        <mxCell id="arrow9" value="" style="edgeStyle=orthogonalEdgeStyle;rounded=0;html=1;strokeWidth=3;strokeColor=#00838F;endArrow=block;endFill=1;dashed=1;" parent="1" source="save" target="saveDetail" edge="1" />

        <!-- 주석 -->
        <mxCell id="notes" value="주요 고려사항\n1. JSON 파싱/저장 시 동시성 대응을 위해 @Transactional 사용\n2. Score 계산은 double → BigDecimal 변환 후 반올림\n3. GradePolicyResolver는 학과별 기준을 캐시" style="rounded=1;whiteSpace=wrap;html=1;strokeColor=#9E9E9E;strokeWidth=2;fillColor=#FAFAFA;fontSize=18;fontColor=#424242;" parent="1" vertex="1">
          <mxGeometry x="200" y="540" width="320" height="280" as="geometry" />
        </mxCell>

      </root>
    </mxGraphModel>
  </diagram>
</mxfile>
